<svg width="11" height="7" viewBox="0 0 11 7" fill="none" xmlns="http://www.w3.org/2000/svg">
<path d="M10 6.5C9.86839 6.50076 9.73793 6.47554 9.61609 6.42577C9.49426 6.37601 9.38344 6.30268 9.29 6.21L6 2.9L2.7 6.08C2.51264 6.26625 2.25919 6.37079 1.995 6.37079C1.73081 6.37079 1.47736 6.26625 1.29 6.08C1.19627 5.98704 1.12188 5.87644 1.07111 5.75458C1.02034 5.63272 0.994202 5.50201 0.994202 5.37C0.994202 5.23799 1.02034 5.10728 1.07111 4.98542C1.12188 4.86357 1.19627 4.75296 1.29 4.66L5.29 0.800002C5.47693 0.616775 5.72825 0.514145 5.99 0.514145C6.25175 0.514145 6.50307 0.616775 6.69 0.800002L10.69 4.8C10.7837 4.89297 10.8581 5.00357 10.9089 5.12543C10.9597 5.24728 10.9858 5.37799 10.9858 5.51C10.9858 5.64201 10.9597 5.77272 10.9089 5.89458C10.8581 6.01644 10.7837 6.12704 10.69 6.22C10.5046 6.39868 10.2575 6.49898 10 6.5Z" fill="#242D2E"/>
</svg>
